name analog
datacolumns 19
datarows 63
range 0.332 0.363
endheader
time	ground_force_vx	ground_force_vy	ground_force_vz	ground_force_px	ground_force_py	ground_force_pz	l_ground_force_vx	l_ground_force_vy	l_ground_force_vz	l_ground_force_px	l_ground_force_py	l_ground_force_pz	ground_torque_x	ground_torque_y	ground_torque_z	l_ground_torque_x	l_ground_torque_y	l_ground_torque_z
0.332	-0.0	-0.0	-0.0	-0.0	-0.0	-0.0	-13.37910270690918	-1.5540908575057983	-799.7958984375	-0.0	-0.0	-0.0	-0.0	-0.0	-0.0	248820.203125	31796.45703125	-4027.39697265625
0.3325	-0.0	-0.0	-0.0	-0.0	-0.0	-0.0	-13.105280876159668	-1.0598602294921875	-800.4163818359375	-0.0	-0.0	-0.0	-0.0	-0.0	-0.0	249086.0	32066.2109375	-4124.89404296875
0.333	-0.0	-0.0	-0.0	-0.0	-0.0	-0.0	-12.668258666992188	-0.5741226077079773	-800.43701171875	-0.0	-0.0	-0.0	-0.0	-0.0	-0.0	249505.734375	31925.9921875	-3905.94970703125
0.3335	-0.0	-0.0	-0.0	-0.0	-0.0	-0.0	-12.193885803222656	0.4177238047122955	-802.368408203125	-0.0	-0.0	-0.0	-0.0	-0.0	-0.0	249678.390625	32026.533203125	-3745.012451171875
0.334	-0.0	-0.0	-0.0	-0.0	-0.0	-0.0	-11.828445434570312	0.4034425616264343	-803.6768188476562	-0.0	-0.0	-0.0	-0.0	-0.0	-0.0	249789.65625	32022.0390625	-3594.189697265625
0.3345	-0.0	-0.0	-0.0	-0.0	-0.0	-0.0	-11.419522285461426	0.6584477424621582	-802.0325927734375	-0.0	-0.0	-0.0	-0.0	-0.0	-0.0	250096.8125	31947.720703125	-3481.310302734375
0.335	-0.0	-0.0	-0.0	-0.0	-0.0	-0.0	-10.643259048461914	0.7447559833526611	-803.7230224609375	-0.0	-0.0	-0.0	-0.0	-0.0	-0.0	249877.125	31984.427734375	-3322.352783203125
0.3355	-0.0	-0.0	-0.0	-0.0	-0.0	-0.0	-10.52044677734375	0.273191750049591	-803.128173828125	-0.0	-0.0	-0.0	-0.0	-0.0	-0.0	249860.671875	32069.166015625	-3163.944580078125
0.336	-0.0	-0.0	-0.0	-0.0	-0.0	-0.0	-10.306827545166016	0.0607744753360748	-802.5572509765625	-0.0	-0.0	-0.0	-0.0	-0.0	-0.0	249600.703125	32182.677734375	-3171.316650390625
0.3365	-0.0	-0.0	-0.0	-0.0	-0.0	-0.0	-10.627978324890137	-0.3689022660255432	-802.9188232421875	-0.0	-0.0	-0.0	-0.0	-0.0	-0.0	249380.296875	32182.421875	-3114.23681640625
0.337	-0.0	-0.0	-0.0	-0.0	-0.0	-0.0	-10.934698104858398	-0.8732749223709106	-800.3884887695312	-0.0	-0.0	-0.0	-0.0	-0.0	-0.0	248960.40625	32330.25	-3328.873291015625
0.3375	-0.0	-0.0	-0.0	-0.0	-0.0	-0.0	-11.480365753173828	-0.4782497882843017	-799.3527221679688	-0.0	-0.0	-0.0	-0.0	-0.0	-0.0	248467.703125	32492.712890625	-3503.00341796875
0.338	-0.0	-0.0	-0.0	-0.0	-0.0	-0.0	-11.698546409606934	-0.0352586507797241	-797.5494384765625	-0.0	-0.0	-0.0	-0.0	-0.0	-0.0	248103.28125	32476.267578125	-3603.973876953125
0.3385	-0.0	-0.0	-0.0	-0.0	-0.0	-0.0	-11.635957717895508	-0.2894788682460785	-796.3563842773438	-0.0	-0.0	-0.0	-0.0	-0.0	-0.0	247923.03125	32267.791015625	-3568.033935546875
0.339	-0.0	-0.0	-0.0	-0.0	-0.0	-0.0	-10.387846946716309	-0.7506866455078125	-797.1085205078125	-0.0	-0.0	-0.0	-0.0	-0.0	-0.0	247947.953125	32189.87109375	-3366.228271484375
0.3395	-0.0	-0.0	-0.0	-0.0	-0.0	-0.0	-9.47761344909668	-0.6008203029632568	-797.782958984375	-0.0	-0.0	-0.0	-0.0	-0.0	-0.0	247993.78125	32051.451171875	-3109.199462890625
0.34	-0.0	-0.0	-0.0	-0.0	-0.0	-0.0	-9.10255241394043	-0.9115104675292968	-797.5250244140625	-0.0	-0.0	-0.0	-0.0	-0.0	-0.0	247996.515625	31909.75	-2911.117431640625
0.3405	-0.0	-0.0	-0.0	-0.0	-0.0	-0.0	-9.367782592773438	-0.8691309094429016	-798.16064453125	-0.0	-0.0	-0.0	-0.0	-0.0	-0.0	247886.9375	31909.888671875	-3053.96826171875
0.341	-0.0	-0.0	-0.0	-0.0	-0.0	-0.0	-9.175326347351074	-0.5016530156135559	-797.70263671875	-0.0	-0.0	-0.0	-0.0	-0.0	-0.0	247880.25	31807.603515625	-3234.288330078125
0.3415	-0.0	-0.0	-0.0	-0.0	-0.0	-0.0	-9.243902206420898	-0.1959856748580932	-798.1389770507812	-0.0	-0.0	-0.0	-0.0	-0.0	-0.0	247731.0	31897.037109375	-3293.320068359375
0.342	-0.0	-0.0	-0.0	-0.0	-0.0	-0.0	-9.171289443969728	0.1216910183429718	-797.3392944335938	-0.0	-0.0	-0.0	-0.0	-0.0	-0.0	247794.171875	32115.208984375	-3295.220703125
0.3425	-0.0	-0.0	-0.0	-0.0	-0.0	-0.0	-9.328079223632812	0.3916524946689605	-796.665283203125	-0.0	-0.0	-0.0	-0.0	-0.0	-0.0	247817.859375	31805.25	-3252.80078125
0.343	-0.0	-0.0	-0.0	-0.0	-0.0	-0.0	-9.198471069335938	-0.2027509659528732	-795.9157104492188	-0.0	-0.0	-0.0	-0.0	-0.0	-0.0	247271.046875	31767.515625	-3310.2646484375
0.3435	-0.0	-0.0	-0.0	-0.0	-0.0	-0.0	-9.226446151733398	-0.4928229451179504	-794.7940673828125	-0.0	-0.0	-0.0	-0.0	-0.0	-0.0	246996.640625	31570.076171875	-3469.1298828125
0.34400000000000003	-0.0	-0.0	-0.0	-0.0	-0.0	-0.0	-9.558587074279783	-0.6407580971717834	-793.522705078125	-0.0	-0.0	-0.0	-0.0	-0.0	-0.0	246388.890625	31530.484375	-3545.5341796875
0.34450000000000003	-0.0	-0.0	-0.0	-0.0	-0.0	-0.0	-9.960455894470217	-0.9967113137245178	-793.6723022460938	-0.0	-0.0	-0.0	-0.0	-0.0	-0.0	245797.703125	31512.623046875	-3622.0498046875
0.34500000000000003	-0.0	-0.0	-0.0	-0.0	-0.0	-0.0	-10.011642456054688	-1.4857370853424072	-790.828369140625	-0.0	-0.0	-0.0	-0.0	-0.0	-0.0	245157.984375	31338.654296875	-3729.275634765625
0.34550000000000003	-0.0	-0.0	-0.0	-0.0	-0.0	-0.0	-9.52369213104248	-2.094547748565674	-789.2074584960938	-0.0	-0.0	-0.0	-0.0	-0.0	-0.0	244846.3125	31037.0703125	-3730.142333984375
0.34600000000000003	-0.0	-0.0	-0.0	-0.0	-0.0	-0.0	-9.397682189941406	-2.438011646270752	-788.5570678710938	-0.0	-0.0	-0.0	-0.0	-0.0	-0.0	244407.234375	30853.02734375	-3654.720458984375
0.34650000000000003	-0.0	-0.0	-0.0	-0.0	-0.0	-0.0	-9.200379371643066	-2.473007202148437	-786.3899536132812	-0.0	-0.0	-0.0	-0.0	-0.0	-0.0	244072.234375	30639.529296875	-3486.405029296875
0.34700000000000003	-0.0	-0.0	-0.0	-0.0	-0.0	-0.0	-8.853057861328125	-2.39827823638916	-785.9035034179688	-0.0	-0.0	-0.0	-0.0	-0.0	-0.0	243648.921875	30572.6953125	-3580.277099609375
0.34750000000000003	-0.0	-0.0	-0.0	-0.0	-0.0	-0.0	-8.844329833984375	-2.252192497253418	-785.4900512695312	-0.0	-0.0	-0.0	-0.0	-0.0	-0.0	243569.0	30350.3828125	-3680.914306640625
0.34800000000000003	-0.0	-0.0	-0.0	-0.0	-0.0	-0.0	-8.574188232421875	-2.257266998291016	-785.3721313476562	-0.0	-0.0	-0.0	-0.0	-0.0	-0.0	243484.40625	30274.703125	-3695.3134765625
0.34850000000000003	-0.0	-0.0	-0.0	-0.0	-0.0	-0.0	-9.240245819091797	-2.547067403793335	-783.2034912109375	-0.0	-0.0	-0.0	-0.0	-0.0	-0.0	243055.328125	30153.341796875	-3879.804443359375
0.34900000000000003	-0.0	-0.0	-0.0	-0.0	-0.0	-0.0	-8.971872329711914	-2.38523268699646	-782.2839965820312	-0.0	-0.0	-0.0	-0.0	-0.0	-0.0	242618.5625	29954.556640625	-3794.137939453125
0.34950000000000003	-0.0	-0.0	-0.0	-0.0	-0.0	-0.0	-9.035512924194336	-2.467413902282715	-781.6195068359375	-0.0	-0.0	-0.0	-0.0	-0.0	-0.0	242287.71875	29927.7890625	-3856.507080078125
0.35000000000000003	-0.0	-0.0	-0.0	-0.0	-0.0	-0.0	-8.963016510009766	-3.0045435428619385	-779.142578125	-0.0	-0.0	-0.0	-0.0	-0.0	-0.0	241646.578125	29713.484375	-3817.01025390625
0.35050000000000003	-0.0	-0.0	-0.0	-0.0	-0.0	-0.0	-8.59434986114502	-3.101809024810791	-776.6156616210938	-0.0	-0.0	-0.0	-0.0	-0.0	-0.0	241243.71875	29372.7890625	-3790.026611328125
0.35100000000000003	-0.0	-0.0	-0.0	-0.0	-0.0	-0.0	-8.334840774536133	-3.253495931625366	-774.9570922851562	-0.0	-0.0	-0.0	-0.0	-0.0	-0.0	240120.75	28997.365234375	-3647.540771484375
0.35150000000000003	-0.0	-0.0	-0.0	-0.0	-0.0	-0.0	-8.122325897216797	-3.223763465881348	-773.9149169921875	-0.0	-0.0	-0.0	-0.0	-0.0	-0.0	239988.359375	28635.19140625	-3566.27294921875
0.352	-0.0	-0.0	-0.0	-0.0	-0.0	-0.0	-7.467777252197266	-3.053606510162353	-772.9185791015625	-0.0	-0.0	-0.0	-0.0	-0.0	-0.0	239519.125	28297.302734375	-3457.234375
0.3525	-0.0	-0.0	-0.0	-0.0	-0.0	-0.0	-6.512127876281738	-2.852413892745972	-772.4021606445312	-0.0	-0.0	-0.0	-0.0	-0.0	-0.0	239696.59375	27752.20703125	-3432.184814453125
0.353	-0.0	-0.0	-0.0	-0.0	-0.0	-0.0	-6.286068916320801	-2.21292781829834	-770.4743041992188	-0.0	-0.0	-0.0	-0.0	-0.0	-0.0	239184.140625	27140.513671875	-3201.894287109375
0.3535	-0.0	-0.0	-0.0	-0.0	-0.0	-0.0	-5.074559211730957	-1.6865333318710327	-770.3837280273438	-0.0	-0.0	-0.0	-0.0	-0.0	-0.0	239233.484375	26738.759765625	-2878.265380859375
0.354	-0.0	-0.0	-0.0	-0.0	-0.0	-0.0	-4.008991241455078	-1.4464712142944336	-770.7188110351562	-0.0	-0.0	-0.0	-0.0	-0.0	-0.0	239245.34375	26337.5703125	-2497.044921875
0.3545	-0.0	-0.0	-0.0	-0.0	-0.0	-0.0	-2.705085039138794	-0.9887298941612244	-769.462158203125	-0.0	-0.0	-0.0	-0.0	-0.0	-0.0	239478.546875	25548.724609375	-2218.118408203125
0.355	-0.0	-0.0	-0.0	-0.0	-0.0	-0.0	-1.3479912281036377	-1.0006773471832275	-771.1798095703125	-0.0	-0.0	-0.0	-0.0	-0.0	-0.0	239478.53125	25100.33984375	-1723.1839599609375
0.3555	-0.0	-0.0	-0.0	-0.0	-0.0	-0.0	-0.1286300420761108	-0.7463593482971191	-771.869384765625	-0.0	-0.0	-0.0	-0.0	-0.0	-0.0	239635.0	24664.884765625	-1323.29833984375
0.356	-0.0	-0.0	-0.0	-0.0	-0.0	-0.0	0.5720281600952148	-0.5392326712608337	-772.1392211914062	-0.0	-0.0	-0.0	-0.0	-0.0	-0.0	239600.609375	24392.501953125	-1179.58203125
0.3565	-0.0	-0.0	-0.0	-0.0	-0.0	-0.0	0.5140394568443298	-0.5033133625984192	-769.5684204101562	-0.0	-0.0	-0.0	-0.0	-0.0	-0.0	239689.28125	24249.025390625	-1162.350341796875
0.357	-0.0	-0.0	-0.0	-0.0	-0.0	-0.0	0.5509617328643799	-0.469882607460022	-770.0640258789062	-0.0	-0.0	-0.0	-0.0	-0.0	-0.0	239298.546875	23805.357421875	-1283.9373779296875
0.3575	-0.0	-0.0	-0.0	-0.0	-0.0	-0.0	-0.098028190433979	-0.4015542268753052	-768.69384765625	-0.0	-0.0	-0.0	-0.0	-0.0	-0.0	239015.875	23729.30859375	-1394.3602294921875
0.358	-0.0	-0.0	-0.0	-0.0	-0.0	-0.0	-0.5873359441757202	-0.3212632536888122	-767.4596557617188	-0.0	-0.0	-0.0	-0.0	-0.0	-0.0	238772.953125	23697.53125	-1568.8663330078125
0.3585	-0.0	-0.0	-0.0	-0.0	-0.0	-0.0	-0.9488477110862732	-0.2918176651000976	-767.1168212890625	-0.0	-0.0	-0.0	-0.0	-0.0	-0.0	238217.671875	23661.646484375	-1943.1455078125
0.359	-0.0	-0.0	-0.0	-0.0	-0.0	-0.0	-2.1194419860839844	-1.2153828144073486	-765.8944702148438	-0.0	-0.0	-0.0	-0.0	-0.0	-0.0	238056.953125	23657.943359375	-2071.22119140625
0.3595	-0.0	-0.0	-0.0	-0.0	-0.0	-0.0	-2.2004942893981934	-1.4647016525268557	-765.46142578125	-0.0	-0.0	-0.0	-0.0	-0.0	-0.0	237665.5	23415.171875	-2217.662353515625
0.36	-0.0	-0.0	-0.0	-0.0	-0.0	-0.0	-1.7809913158416748	-1.7088289260864258	-763.1512451171875	-0.0	-0.0	-0.0	-0.0	-0.0	-0.0	237356.265625	23138.9453125	-2126.037109375
0.3605	-0.0	-0.0	-0.0	-0.0	-0.0	-0.0	-1.1732895374298096	-2.085540294647217	-763.3805541992188	-0.0	-0.0	-0.0	-0.0	-0.0	-0.0	237533.09375	23076.072265625	-1927.138916015625
0.361	-0.0	-0.0	-0.0	-0.0	-0.0	-0.0	-0.3906697928905487	-2.009318351745605	-763.0640258789062	-0.0	-0.0	-0.0	-0.0	-0.0	-0.0	237673.078125	22651.24609375	-1851.969482421875
0.3615	-0.0	-0.0	-0.0	-0.0	-0.0	-0.0	0.1260748207569122	-1.6818379163742063	-764.023681640625	-0.0	-0.0	-0.0	-0.0	-0.0	-0.0	237767.5	22317.560546875	-1553.146240234375
0.362	-0.0	-0.0	-0.0	-0.0	-0.0	-0.0	0.4791617393493652	-1.2522907257080078	-765.22509765625	-0.0	-0.0	-0.0	-0.0	-0.0	-0.0	237787.828125	21850.8984375	-1454.7069091796875
0.3625	-0.0	-0.0	-0.0	-0.0	-0.0	-0.0	0.5935260057449341	-0.7885607481002808	-766.3878173828125	-0.0	-0.0	-0.0	-0.0	-0.0	-0.0	238245.671875	21809.37890625	-1517.568115234375
0.363	-0.0	-0.0	-0.0	-0.0	-0.0	-0.0	0.4785697758197784	-0.3033411502838135	-767.572021484375	-0.0	-0.0	-0.0	-0.0	-0.0	-0.0	238667.65625	21512.3671875	-1601.0369873046875
